Coordinates
version=1
nRows=29
nColumns=30
inDegrees=yes

Units are S.I. units (second, meters, Newtons, ...)
Angles are in degrees.

endheader
time	floatyaw	floatroll	floatpitch	floatx	floaty	floatz	pro_sup_l	deviation_l	flexion_l	cmc_flexion_l	cmc_abduction_l	mp_flexion_l	ip_flexion_l	2mcp_flexion_l	2mcp_abduction_l	2pm_flexion_l	2md_flexion_l	3mcp_flexion_l	3mcp_abduction_l	3pm_flexion_l	3md_flexion_l	4mcp_flexion_l	4mcp_abduction_l	4pm_flexion_l	4md_flexion_l	5mcp_flexion_l	5mcp_abduction_l	5pm_flexion_l	5md_flexion_l
0.005000	-160.147433	-5.066637	-73.570646	-0.049176	-0.122712	-0.122988	97.525399	6.671263	-9.020732	17.155769	-4.717821	-34.283463	-56.072290	52.967134	14.417039	90.419359	76.406468	68.119763	6.104578	95.490919	58.657255	56.683802	-5.700196	89.727756	67.597108	50.593906	-15.367081	88.655986	70.264122
0.015000	-160.147433	-5.066637	-73.570646	-0.049261	-0.122130	-0.122788	98.158449	7.024256	-8.683739	17.113733	-5.220959	-34.353110	-56.178005	54.394956	14.405296	90.759678	76.501549	69.613360	6.097362	95.860657	58.300060	58.300411	-5.686782	90.129191	67.479651	52.093637	-15.321623	88.909010	69.976002
0.025000	-160.147433	-5.066637	-73.570646	-0.049325	-0.121631	-0.122630	98.690937	7.334639	-8.362187	17.103056	-5.746621	-34.413213	-56.288799	55.693213	14.387852	91.094424	76.611664	70.916184	6.092423	96.186338	57.963765	59.873897	-5.677629	90.535174	67.418694	53.537010	-15.279079	89.117882	69.707492
0.035000	-160.147433	-5.066637	-73.570646	-0.049364	-0.121220	-0.122506	99.091369	7.598501	-8.056662	17.114987	-6.250716	-34.458169	-56.397903	56.823011	14.365896	91.399940	76.727484	72.017821	6.089450	96.468258	57.644208	61.345243	-5.672145	90.923064	67.398903	54.876343	-15.241073	89.287116	69.481265
0.045000	-160.147433	-5.066637	-73.570646	-0.049380	-0.120891	-0.122407	99.344877	7.816658	-7.764255	17.132819	-6.682714	-34.487515	-56.497129	57.768300	14.340493	91.660707	76.831662	72.925038	6.087363	96.711069	57.339285	62.658046	-5.668565	91.266317	67.386133	56.074667	-15.208002	89.429863	69.302722
0.055000	-160.147433	-5.066637	-73.570646	-0.049377	-0.120627	-0.122321	99.458441	7.994288	-7.482737	17.138087	-7.001697	-34.506879	-56.580469	58.533267	14.312898	91.872202	76.907812	73.656384	6.084951	96.919624	57.052678	63.771560	-5.664762	91.546045	67.345266	57.107800	-15.179050	89.562827	69.162607
0.065000	-160.147433	-5.066637	-73.570646	-0.049362	-0.120411	-0.122244	99.458573	8.139123	-7.213516	17.117670	-7.189353	-34.525165	-56.646123	59.135698	14.284381	92.039020	76.949271	74.236056	6.081406	97.096404	56.794317	64.670994	-5.659168	91.757934	67.258642	57.965939	-15.152677	89.699033	69.046215
0.075000	-160.147433	-5.066637	-73.570646	-0.049342	-0.120231	-0.122172	99.382662	8.258930	-6.962180	17.068143	-7.253687	-34.549952	-56.695839	59.599781	14.255948	92.170053	76.962463	74.688825	6.076567	97.241529	56.576852	65.368902	-5.651324	91.910851	67.133438	58.653858	-15.127412	89.842427	68.942898
0.085000	-160.147433	-5.066637	-73.570646	-0.049322	-0.120080	-0.122110	99.267629	8.359207	-6.736521	16.995290	-7.222183	-34.584115	-56.732490	59.949774	14.228233	92.274044	76.962910	75.036452	6.070833	97.354825	56.409829	65.896683	-5.641894	92.019999	66.994887	59.188027	-15.102556	89.987532	68.850384
0.095000	-160.147433	-5.066637	-73.570646	-0.049303	-0.119958	-0.122060	99.140540	8.442032	-6.543057	16.909783	-7.129422	-34.625566	-56.757902	60.205441	14.201576	92.357972	76.966378	75.295957	6.064900	97.438239	56.294971	66.291351	-5.632193	92.100267	66.871391	59.590990	-15.078385	90.124199	68.772276
0.105000	-160.147433	-5.066637	-73.570646	-0.049284	-0.119865	-0.122025	99.014797	8.506612	-6.383795	16.822037	-7.006591	-34.669582	-56.772367	60.380445	14.176089	92.428048	76.980581	75.480166	6.059453	97.496849	56.225455	66.584707	-5.623510	92.163127	66.781059	59.885680	-15.055788	90.244142	68.711746
0.115000	-160.147433	-5.066637	-73.570646	-0.049262	-0.119803	-0.122006	98.892551	8.551272	-6.254988	16.738867	-6.876970	-34.711505	-56.775712	60.484268	14.151640	92.491003	77.002745	75.599986	6.054946	97.538017	56.189265	66.799134	-5.616545	92.216537	66.726575	60.092335	-15.035608	90.344949	68.666950
0.125000	-160.147433	-5.066637	-73.570646	-0.049234	-0.119769	-0.122002	98.770500	8.575809	-6.148441	16.662663	-6.755838	-34.747933	-56.768758	60.526206	14.127816	92.553625	77.024389	75.666649	6.051512	97.569608	56.174037	66.949365	-5.611183	92.265662	66.699121	60.228552	-15.018120	90.429552	68.631793
0.135000	-160.147433	-5.066637	-73.570646	-0.049200	-0.119760	-0.122008	98.645138	8.582906	-6.054431	16.592283	-6.651053	-34.776433	-56.753900	60.518414	14.104041	92.620707	77.039265	75.692342	6.048986	97.598317	56.170479	67.046487	-5.606700	92.313275	66.686570	60.310690	-15.002931	90.502696	68.600500
0.145000	-160.147433	-5.066637	-73.570646	-0.049161	-0.119768	-0.122020	98.515319	8.577977	-5.964576	16.524520	-6.562979	-34.795074	-56.734395	60.475698	14.079897	92.693248	77.048212	75.689050	6.047011	97.628377	56.173418	67.100613	-5.602205	92.360037	66.679951	60.354320	-14.989306	90.567624	68.571243
0.155000	-160.147433	-5.066637	-73.570646	-0.049118	-0.119786	-0.122032	98.382511	8.567806	-5.873419	16.455591	-6.485518	-34.802714	-56.712954	60.412480	14.055411	92.768426	77.057961	75.666711	6.045194	97.660715	56.181167	67.121128	-5.597067	92.405056	66.675616	60.372901	-14.976600	90.624975	68.546138
0.165000	-160.147433	-5.066637	-73.570646	-0.049075	-0.119809	-0.122038	98.249977	8.558869	-5.778655	16.382586	-6.409777	-34.799732	-56.690624	60.339496	14.031082	92.841225	77.076061	75.632013	6.043241	97.693014	56.194224	67.115712	-5.591103	92.446684	66.674286	60.375874	-14.964502	90.673778	68.528973
0.175000	-160.147433	-5.066637	-73.570646	-0.049033	-0.119831	-0.122035	98.121616	8.556173	-5.680648	16.304725	-6.329086	-34.788276	-56.666583	60.262490	14.007624	92.906640	77.106175	75.588449	6.041047	97.721103	56.213855	67.089849	-5.584531	92.483303	66.679037	60.367935	-14.953044	90.713224	68.523143
0.185000	-160.147433	-5.066637	-73.570646	-0.048993	-0.119852	-0.122019	98.000808	8.562964	-5.581759	16.224075	-6.242328	-34.771567	-56.638780	60.183035	13.985678	92.961399	77.146390	75.537332	6.038703	97.741145	56.240978	67.047436	-5.577804	92.513994	66.693130	60.350163	-14.942483	90.743948	68.530577
0.195000	-160.147433	-5.066637	-73.570646	-0.048956	-0.119870	-0.121989	97.889625	8.581108	-5.485564	16.145326	-6.153635	-34.752621	-56.605005	60.100138	13.965670	93.004775	77.190529	75.479071	6.036411	97.751407	56.275640	66.991853	-5.571435	92.538918	66.717995	60.322128	-14.933165	90.768237	68.551048
0.205000	-160.147433	-5.066637	-73.570646	-0.048921	-0.119887	-0.121947	97.788634	8.611560	-5.395846	16.074487	-6.069126	-34.733109	-56.563898	60.011592	13.947868	93.038547	77.230877	75.414168	6.034373	97.752667	56.317162	66.926559	-5.565869	92.559290	66.751965	60.283610	-14.925364	90.789360	68.581436
0.215000	-160.147433	-5.066637	-73.570646	-0.048889	-0.119905	-0.121893	97.697169	8.654389	-5.315509	16.016842	-5.993236	-34.712996	-56.515656	59.915078	13.932452	93.066472	77.260694	75.343802	6.032704	97.747356	56.364632	66.854812	-5.561391	92.577038	66.790328	60.235222	-14.919105	90.810698	68.615280
0.225000	-160.147433	-5.066637	-73.570646	-0.048859	-0.119927	-0.121831	97.613787	8.708370	-5.245817	15.975018	-5.927021	-34.691196	-56.462430	59.809547	13.919482	93.093448	77.275826	75.270039	6.031415	97.738328	56.417107	66.778994	-5.558050	92.594384	66.826591	60.178288	-14.914043	90.835158	68.643531
0.235000	-160.147433	-5.066637	-73.570646	-0.048830	-0.119954	-0.121765	97.536664	8.770660	-5.186367	15.948177	-5.869054	-34.666944	-56.408209	59.696718	13.908722	93.124373	77.275510	75.195635	6.030446	97.728216	56.473086	66.700378	-5.555641	92.613464	66.854347	60.114683	-14.909513	90.864804	68.657178
0.245000	-160.147433	-5.066637	-73.570646	-0.048803	-0.119987	-0.121697	97.463722	8.837037	-5.135692	15.932618	-5.817384	-34.641008	-56.357874	59.581620	13.899505	93.162669	77.262509	75.123471	6.029696	97.719496	56.529633	66.619617	-5.553756	92.635977	66.869121	60.046801	-14.904788	90.900552	68.651133
0.255000	-160.147433	-5.066637	-73.570646	-0.048779	-0.120024	-0.121634	97.392502	8.902807	-5.092004	15.923173	-5.770549	-34.615748	-56.315420	59.471218	13.890861	93.208709	77.242496	75.055725	6.029031	97.714497	56.582271	66.537442	-5.551935	92.662724	66.869782	59.977276	-14.899424	90.941872	68.627212
0.265000	-160.147433	-5.066637	-73.570646	-0.048757	-0.120067	-0.121576	97.320252	8.964016	-5.053618	15.914562	-5.727072	-34.593739	-56.282152	59.371508	13.881919	93.258766	77.222782	74.993012	6.028298	97.714691	56.626396	66.454860	-5.549845	92.692955	66.859281	59.908366	-14.893479	90.986519	68.594135
0.275000	-160.147433	-5.066637	-73.570646	-0.048736	-0.120114	-0.121526	97.244663	9.018454	-5.018991	15.902412	-5.684742	-34.575837	-56.255880	59.284729	13.872332	93.305440	77.210737	74.933832	6.027342	97.719681	56.659585	66.372722	-5.547393	92.723796	66.844404	59.841400	-14.887469	91.030478	68.564353
0.285000	-160.147433	-5.066637	-73.570646	-0.048717	-0.120162	-0.121481	97.165007	9.066019	-4.986587	15.884020	-5.640986	-34.560174	-56.231633	59.208223	13.862364	93.340330	77.211974	74.874758	6.026039	97.727043	56.683140	66.291092	-5.544709	92.750549	66.834126	59.776597	-14.882062	91.068719	68.549260
